<?xml version="1.0" encoding="UTF-8" standalone="no"?>
<svg
   xmlns:dc="http://purl.org/dc/elements/1.1/"
   xmlns:cc="http://creativecommons.org/ns#"
   xmlns:rdf="http://www.w3.org/1999/02/22-rdf-syntax-ns#"
   xmlns:svg="http://www.w3.org/2000/svg"
   xmlns="http://www.w3.org/2000/svg"
   xmlns:sodipodi="http://sodipodi.sourceforge.net/DTD/sodipodi-0.dtd"
   xmlns:inkscape="http://www.inkscape.org/namespaces/inkscape"
   height="24"
   width="24"
   version="1.1"
   id="svg16"
   sodipodi:docname="CTFNote.svg"
   inkscape:version="1.0.1 (3bc2e813f5, 2020-09-07)"
   inkscape:export-filename="C:\Users\ent3r_\Pictures\logoer\CTFNote\CTFNote.png"
   inkscape:export-xdpi="2048"
   inkscape:export-ydpi="2048">
  <metadata
     id="metadata22">
    <rdf:RDF>
      <cc:Work
         rdf:about="">
        <dc:format>image/svg+xml</dc:format>
        <dc:type
           rdf:resource="http://purl.org/dc/dcmitype/StillImage" />
        <dc:title></dc:title>
      </cc:Work>
    </rdf:RDF>
  </metadata>
  <defs
     id="defs20" />
  <sodipodi:namedview
     pagecolor="#ffffff"
     bordercolor="#666666"
     borderopacity="1"
     objecttolerance="10"
     gridtolerance="10"
     guidetolerance="10"
     inkscape:pageopacity="0"
     inkscape:pageshadow="2"
     inkscape:window-width="1920"
     inkscape:window-height="1017"
     id="namedview18"
     showgrid="true"
     inkscape:zoom="16"
     inkscape:cx="20.688274"
     inkscape:cy="14.200396"
     inkscape:window-x="-8"
     inkscape:window-y="-8"
     inkscape:window-maximized="1"
     inkscape:current-layer="svg16">
    <inkscape:grid
       type="xygrid"
       id="grid956" />
  </sodipodi:namedview>
  <g
     transform="translate(0,-1028.4)"
     id="g14">
    <rect
       height="20.999975"
       width="1"
       y="1030.4"
       x="3"
       fill="#ecf0f1"
       id="rect2"
       style="fill:#a05a2c" />
    <path
       d="m 17.5,1030.4 c -2.25,0 -4.5,1.1 -4.5,1.1 0,0 -2.25,1.1 -4.5,1.1 -2.25,0 -4.5,-1.1 -4.5,-1.1 v 13.7 c 0,0 2.25,1.2 4.5,1.2 2.25,0 4.5,-1.2 4.5,-1.2 0,0 2.25,-1.1 4.5,-1.1 2.25,0 4.5,1.1 4.5,1.1 v -13.7 c 0,0 -2.25,-1.1 -4.5,-1.1 z"
       fill="#1abc9c"
       id="path4" />
    <rect
       height="20.999975"
       width="1"
       y="1030.4"
       x="2"
       fill="#bdc3c7"
       id="rect6"
       style="fill:#784421" />
    <path
       d="m 17.5,1043.2 c -2.25,0 -4.5,1.2 -4.5,1.2 0,0 -2.25,1.1 -4.5,1.1 -2.25,0 -4.5,-1.1 -4.5,-1.1 v 1 c 0,0 2.25,1.1 4.5,1.1 2.25,0 4.5,-1.1 4.5,-1.1 0,0 2.25,-1.2 4.5,-1.2 2.25,0 4.5,1.2 4.5,1.2 v -1 c 0,0 -2.25,-1.2 -4.5,-1.2 z"
       fill="#16a085"
       id="path8" />
    <path
       d="m 3,1029.4 -1,1 h 2 z"
       fill="#95a5a6"
       id="path10"
       sodipodi:nodetypes="cccc"
       style="fill:#333b3c;fill-opacity:1" />
    <path
       d="m 3,1029.4 v 1 h 1 c 0,0 -1,-1 -1,-1 z"
       fill="#bdc3c7"
       id="path12"
       sodipodi:nodetypes="cccc"
       style="fill:#545e63;fill-opacity:1" />
  </g>
  <path
     d="m 3,24 c 0,0 0.546875,0 0.7734375,0 C 4,24 4,23 4,23 H 2 c 0,0 0,1 0.1621094,1 C 2.3242188,24 3,24 3,24 Z"
     fill="#95a5a6"
     id="path10-7"
     sodipodi:nodetypes="czcczc"
     style="fill:#660910;fill-opacity:1" />
</svg>
